<svg xmlns="http://www.w3.org/2000/svg" width="460" height="370" style="background-color:white;">
  <rect id="A1" x="10" y="10" width="80" height="80" fill="white" stroke="black" stroke-width="2"/>
  <text x="50.0" y="55.0" font-size="20" text-anchor="middle" fill="black">A1</text>
  <rect id="A2" x="100" y="10" width="80" height="80" fill="white" stroke="black" stroke-width="2"/>
  <text x="140.0" y="55.0" font-size="20" text-anchor="middle" fill="black">A2</text>
  <rect id="A3" x="190" y="10" width="80" height="80" fill="white" stroke="black" stroke-width="2"/>
  <text x="230.0" y="55.0" font-size="20" text-anchor="middle" fill="black">A3</text>
  <rect id="A4" x="280" y="10" width="80" height="80" fill="white" stroke="black" stroke-width="2"/>
  <text x="320.0" y="55.0" font-size="20" text-anchor="middle" fill="black">A4</text>
  <rect id="A5" x="370" y="10" width="80" height="80" fill="white" stroke="black" stroke-width="2"/>
  <text x="410.0" y="55.0" font-size="20" text-anchor="middle" fill="black">A5</text>
  <rect id="B1" x="10" y="100" width="80" height="80" fill="white" stroke="black" stroke-width="2"/>
  <text x="50.0" y="145.0" font-size="20" text-anchor="middle" fill="black">B1</text>
  <rect id="B2" x="100" y="100" width="80" height="80" fill="white" stroke="black" stroke-width="2"/>
  <text x="140.0" y="145.0" font-size="20" text-anchor="middle" fill="black">B2</text>
  <rect id="B3" x="190" y="100" width="80" height="80" fill="white" stroke="black" stroke-width="2"/>
  <text x="230.0" y="145.0" font-size="20" text-anchor="middle" fill="black">B3</text>
  <rect id="B4" x="280" y="100" width="80" height="80" fill="white" stroke="black" stroke-width="2"/>
  <text x="320.0" y="145.0" font-size="20" text-anchor="middle" fill="black">B4</text>
  <rect id="B5" x="370" y="100" width="80" height="80" fill="white" stroke="black" stroke-width="2"/>
  <text x="410.0" y="145.0" font-size="20" text-anchor="middle" fill="black">B5</text>
  <rect id="C1" x="10" y="190" width="80" height="80" fill="white" stroke="black" stroke-width="2"/>
  <text x="50.0" y="235.0" font-size="20" text-anchor="middle" fill="black">C1</text>
  <rect id="C2" x="100" y="190" width="80" height="80" fill="white" stroke="black" stroke-width="2"/>
  <text x="140.0" y="235.0" font-size="20" text-anchor="middle" fill="black">C2</text>
  <rect id="C3" x="190" y="190" width="80" height="80" fill="white" stroke="black" stroke-width="2"/>
  <text x="230.0" y="235.0" font-size="20" text-anchor="middle" fill="black">C3</text>
  <rect id="C4" x="280" y="190" width="80" height="80" fill="white" stroke="black" stroke-width="2"/>
  <text x="320.0" y="235.0" font-size="20" text-anchor="middle" fill="black">C4</text>
  <rect id="C5" x="370" y="190" width="80" height="80" fill="white" stroke="black" stroke-width="2"/>
  <text x="410.0" y="235.0" font-size="20" text-anchor="middle" fill="black">C5</text>
  <rect id="D1" x="10" y="280" width="80" height="80" fill="white" stroke="black" stroke-width="2"/>
  <text x="50.0" y="325.0" font-size="20" text-anchor="middle" fill="black">D1</text>
  <rect id="D2" x="100" y="280" width="80" height="80" fill="white" stroke="black" stroke-width="2"/>
  <text x="140.0" y="325.0" font-size="20" text-anchor="middle" fill="black">D2</text>
  <rect id="D3" x="190" y="280" width="80" height="80" fill="white" stroke="black" stroke-width="2"/>
  <text x="230.0" y="325.0" font-size="20" text-anchor="middle" fill="black">D3</text>
  <rect id="D4" x="280" y="280" width="80" height="80" fill="white" stroke="black" stroke-width="2"/>
  <text x="320.0" y="325.0" font-size="20" text-anchor="middle" fill="black">D4</text>
  <rect id="D5" x="370" y="280" width="80" height="80" fill="white" stroke="black" stroke-width="2"/>
  <text x="410.0" y="325.0" font-size="20" text-anchor="middle" fill="black">D5</text>
</svg>